<?xml version="1.0" encoding="UTF-8" standalone="no"?>
<svg
   xmlns:dc="http://purl.org/dc/elements/1.1/"
   xmlns:cc="http://creativecommons.org/ns#"
   xmlns:rdf="http://www.w3.org/1999/02/22-rdf-syntax-ns#"
   xmlns:svg="http://www.w3.org/2000/svg"
   xmlns="http://www.w3.org/2000/svg"
   xmlns:sodipodi="http://sodipodi.sourceforge.net/DTD/sodipodi-0.dtd"
   xmlns:inkscape="http://www.inkscape.org/namespaces/inkscape"
   xml:space="preserve"
   enable-background="new 0 0 300 100"
   viewBox="0 0 300 100"
   height="100px"
   width="300px"
   y="0px"
   x="0px"
   id="Layer_1"
   version="1.1"
   sodipodi:docname="logo.svg"
   inkscape:version="0.92.4 (5da689c313, 2019-01-14)"><sodipodi:namedview
     pagecolor="#ffffff"
     bordercolor="#666666"
     borderopacity="1"
     objecttolerance="10"
     gridtolerance="10"
     guidetolerance="10"
     inkscape:pageopacity="0"
     inkscape:pageshadow="2"
     inkscape:window-width="1920"
     inkscape:window-height="1017"
     id="namedview14"
     showgrid="false"
     inkscape:zoom="3.5638182"
     inkscape:cx="152.25732"
     inkscape:cy="8.6461412"
     inkscape:window-x="1912"
     inkscape:window-y="-8"
     inkscape:window-maximized="1"
     inkscape:current-layer="g18" /><metadata
     id="metadata25"><rdf:RDF><cc:Work
         rdf:about=""><dc:format>image/svg+xml</dc:format><dc:type
           rdf:resource="http://purl.org/dc/dcmitype/StillImage" /><dc:title /></cc:Work></rdf:RDF></metadata><defs
     id="defs23" /><g
     transform="matrix(1.2935718,0,0,1.2935718,-44.037064,-14.679884)"
     id="g18"><g
       id="g6"
       inkscape:transform-center-x="1.6835876"
       inkscape:transform-center-y="-36.197133"><path
         style="fill:#006069"
         id="path2"
         d="m 111.307,49.808 c 0,-4.031 2.251,-7.537 5.564,-9.327 -0.896,-3.438 -2.358,-7.034 -4.238,-9.983 -3.587,1.035 -7.61,0.14 -10.435,-2.686 -2.809,-2.808 -3.707,-6.8 -2.703,-10.369 -3.177,-1.886 -6.558,-3.288 -10.044,-4.166 -1.815,3.235 -5.276,5.425 -9.249,5.425 -3.986,0 -7.455,-2.202 -9.263,-5.452 -3.497,0.874 -6.871,2.262 -10.044,4.136 1.028,3.583 0.135,7.604 -2.688,10.426 -2.85,2.85 -6.914,3.724 -10.523,2.648 -1.75,2.697 -3.275,6.615 -4.153,10.02 3.313,1.792 5.514,5.297 5.565,9.327 0.026,2.021 -0.715,6.72 -5.793,9.46 0.861,3.476 2.236,6.818 4.09,9.974 3.677,-1.211 7.887,-0.364 10.815,2.562 2.945,2.946 3.782,7.194 2.532,10.892 3.17,1.896 6.512,3.173 9.994,4.057 1.744,-3.462 5.328,-5.838 9.468,-5.838 4.129,0 7.705,2.364 9.454,5.812 3.487,-0.89 6.825,-2.188 9.987,-4.084 -1.221,-3.685 -0.378,-7.906 2.553,-10.838 2.901,-2.899 7.063,-3.759 10.719,-2.593 2.207,-3.89 3.117,-6.15 4.073,-10.016 -3.376,-1.774 -5.681,-5.31 -5.681,-9.387 z M 80.203,75.087 c -13.842,0 -25.062,-11.219 -25.062,-25.059 0,-13.843 11.22,-25.062 25.062,-25.062 13.841,0 25.061,11.218 25.061,25.062 0,13.84 -11.22,25.059 -25.061,25.059 z"
         inkscape:connector-curvature="0" /></g><g
       id="g16"><text
         xml:space="preserve"
         style="font-style:normal;font-weight:normal;font-size:30.9221344px;line-height:1.25;font-family:sans-serif;letter-spacing:0px;word-spacing:0px;fill:#00838f;fill-opacity:1;stroke:none;stroke-width:0.77305335;"
         x="123.84669"
         y="68.969574"
         id="text18"><tspan
           sodipodi:role="line"
           id="tspan16"
           x="123.84669"
           y="68.969574"
           style="font-style:normal;font-variant:normal;font-weight:normal;font-stretch:normal;font-size:49.47541428px;font-family:'Times New Roman';-inkscape-font-specification:'Times New Roman, Normal';font-variant-ligatures:normal;font-variant-caps:normal;font-variant-numeric:normal;font-feature-settings:normal;text-align:start;writing-mode:lr-tb;text-anchor:start;stroke-width:0.77305335;fill:#00838f;fill-opacity:1;">JinLab</tspan></text>
</g></g></svg>